<?xml version="1.0" encoding="UTF-8" standalone="no"?>
<!-- Created with Inkscape (http://www.inkscape.org/) -->

<svg
   width="57.040329mm"
   height="21.235394mm"
   viewBox="0 0 57.040328 21.235393"
   version="1.1"
   id="svg5"
   inkscape:version="1.2.1 (9c6d41e410, 2022-07-14)"
   sodipodi:docname="LOGO.svg"
   xmlns:inkscape="http://www.inkscape.org/namespaces/inkscape"
   xmlns:sodipodi="http://sodipodi.sourceforge.net/DTD/sodipodi-0.dtd"
   xmlns="http://www.w3.org/2000/svg"
   xmlns:svg="http://www.w3.org/2000/svg">
  <sodipodi:namedview
     id="namedview7"
     pagecolor="#ffffff"
     bordercolor="#111111"
     borderopacity="1"
     inkscape:showpageshadow="0"
     inkscape:pageopacity="0"
     inkscape:pagecheckerboard="1"
     inkscape:deskcolor="#d1d1d1"
     inkscape:document-units="mm"
     showgrid="false"
     inkscape:zoom="1.4503086"
     inkscape:cx="523.33688"
     inkscape:cy="103.08151"
     inkscape:window-width="2400"
     inkscape:window-height="1271"
     inkscape:window-x="2391"
     inkscape:window-y="-9"
     inkscape:window-maximized="1"
     inkscape:current-layer="layer1" />
  <defs
     id="defs2">
    <linearGradient
       id="linearGradient9977"
       inkscape:swatch="solid">
      <stop
         style="stop-color:#ffffff;stop-opacity:1;"
         offset="0"
         id="stop9975" />
    </linearGradient>
    <inkscape:path-effect
       effect="spiro"
       id="path-effect2929"
       is_visible="true"
       lpeversion="1" />
    <inkscape:path-effect
       effect="spiro"
       id="path-effect2925"
       is_visible="true"
       lpeversion="1" />
    <inkscape:path-effect
       effect="spiro"
       id="path-effect2921"
       is_visible="true"
       lpeversion="1" />
    <inkscape:path-effect
       effect="spiro"
       id="path-effect2917"
       is_visible="true"
       lpeversion="1" />
    <inkscape:path-effect
       effect="spiro"
       id="path-effect2167"
       is_visible="true"
       lpeversion="1" />
    <inkscape:path-effect
       effect="spiro"
       id="path-effect2163"
       is_visible="true"
       lpeversion="1" />
    <inkscape:path-effect
       effect="spiro"
       id="path-effect2159"
       is_visible="true"
       lpeversion="1" />
    <inkscape:path-effect
       effect="spiro"
       id="path-effect2155"
       is_visible="true"
       lpeversion="1" />
    <inkscape:path-effect
       effect="spiro"
       id="path-effect2151"
       is_visible="true"
       lpeversion="1" />
    <inkscape:path-effect
       effect="spiro"
       id="path-effect1350"
       is_visible="true"
       lpeversion="1" />
    <inkscape:path-effect
       effect="spiro"
       id="path-effect1007"
       is_visible="true"
       lpeversion="1" />
    <inkscape:path-effect
       effect="spiro"
       id="path-effect1003"
       is_visible="true"
       lpeversion="1" />
    <inkscape:path-effect
       effect="spiro"
       id="path-effect837"
       is_visible="true"
       lpeversion="1" />
    <inkscape:path-effect
       effect="spiro"
       id="path-effect570"
       is_visible="true"
       lpeversion="1" />
  </defs>
  <g
     inkscape:label="Layer 1"
     inkscape:groupmode="layer"
     id="layer1"
     transform="translate(-20.059378,-18.68986)">
    <path
       style="fill:#000000;stroke-width:0.264583"
       d="M 21.865366,22.445862 V 39.925254 Z"
       id="path113" />
    <path
       style="fill:#000000;stroke-width:0.264583"
       d="m 23.413356,22.252363 v 15.802403 -0.0645"
       id="path115" />
    <text
       xml:space="preserve"
       style="font-style:normal;font-variant:normal;font-weight:normal;font-stretch:normal;font-size:16.087px;font-family:sans-serif;-inkscape-font-specification:'sans-serif, Normal';font-variant-ligatures:normal;font-variant-caps:normal;font-variant-numeric:normal;font-variant-east-asian:normal;fill:#000000;stroke-width:1.34058"
       x="25.046198"
       y="27.454395"
       id="text173"
       transform="scale(0.81498981,1.2270092)"><tspan
         sodipodi:role="line"
         id="tspan171"
         style="font-style:normal;font-variant:normal;font-weight:normal;font-stretch:normal;font-size:16.087px;font-family:sans-serif;-inkscape-font-specification:'sans-serif, Normal';font-variant-ligatures:normal;font-variant-caps:normal;font-variant-numeric:normal;font-variant-east-asian:normal;stroke-width:1.34058"
         x="25.046198"
         y="27.454395">RuleOUT</tspan></text>
    <rect
       style="fill:#000000;stroke-width:0.264583"
       id="rect385"
       width="55.340664"
       height="1.2899921"
       x="20.059378"
       y="35.73278" />
    <path
       style="fill:#000000;stroke-width:0.264583"
       d="m 51.673987,21.253378 v 7.890203"
       id="path548" />
    <path
       style="fill:#000000;stroke-width:0.264583"
       d="M 50.39696,31.515203 52.03885,28.91554"
       id="path697" />
    <path
       style="fill:#000000;stroke-width:0.264583"
       d="m 50.39696,32.701013 1.277027,-3.101351"
       id="path699" />
    <path
       style="fill:#000000;stroke-width:0.264583"
       d="m 51.582769,27.684121 -1.094594,3.739864"
       id="path701" />
    <path
       style="fill:#000000;stroke:#800000;stroke-width:0.264583"
       d="M 51.765202,21.253378 Z"
       id="path1348"
       inkscape:path-effect="#path-effect1350"
       inkscape:original-d="m 51.765202,21.253378 c 2.65e-4,2.554319 2.65e-4,5.047562 0,0 z" />
    <path
       style="fill:#ffffff;fill-opacity:1;stroke:#ffffff;stroke-width:0.264583;stroke-opacity:1"
       d="M 51.98184,28.750211 V 20.882812 Z"
       id="path2149"
       inkscape:path-effect="#path-effect2151"
       inkscape:original-d="m 51.98184,28.750211 c 2.64e-4,-2.622202 0,-7.867399 0,-7.867399 0,0 0.186899,-0.322992 0,7.867399 z" />
    <path
       style="fill:none;fill-opacity:1;stroke:#ffffff;stroke-width:0.234262;stroke-opacity:1"
       d="m 52.029652,28.619043 -1.93744,1.960242 z"
       id="path2153"
       inkscape:path-effect="#path-effect2155"
       inkscape:original-d="m 52.029652,28.619043 c -0.645581,0.653648 -1.93744,1.960242 -1.93744,1.960242 0,0 -0.264715,0.191711 1.93744,-1.960242 z" />
    <path
       style="fill:#ffffff;fill-opacity:0.866667;stroke:#ffffff;stroke-width:0.264583;stroke-opacity:1"
       d="m 53.168117,21.066205 v 7.756077 z"
       id="path2157"
       inkscape:path-effect="#path-effect2159"
       inkscape:original-d="m 53.168117,21.066205 c 2.64e-4,2.585624 0,7.756077 0,7.756077 0,0 0.09164,2.64e-4 0,-7.756077 z" />
    <path
       style="fill:#000000;stroke:#000000;stroke-width:0.264583;stroke-opacity:1"
       d="M 53.13155,28.791011 Z"
       id="path2161"
       inkscape:path-effect="#path-effect2163"
       inkscape:original-d="m 53.13155,28.791011 c 0.694978,0.694978 2.088174,2.088173 0,0 z" />
    <path
       style="fill:#ffffff;fill-opacity:1;stroke:#ffffff;stroke-width:0.20305;stroke-opacity:1"
       d="m 53.10173,28.696694 1.923704,1.821085 z"
       id="path2165"
       inkscape:path-effect="#path-effect2167"
       inkscape:original-d="m 53.10173,28.696694 c 0.641443,0.607225 1.923704,1.821085 1.923704,1.821085 0,0 0.159546,-0.562734 -1.923704,-1.821085 z" />
    <path
       style="fill:#ffffff;fill-opacity:1;stroke:#ffffff;stroke-width:0.234249;stroke-opacity:1"
       d="m 52.636781,29.509123 -2.059562,2.013954 z"
       id="path2915"
       inkscape:path-effect="#path-effect2917"
       inkscape:original-d="m 52.636781,29.509123 c -0.686284,0.67155 -2.059562,2.013954 -2.059562,2.013954 0,0 -0.0423,-0.02141 2.059562,-2.013954 z" />
    <path
       style="fill:#000000;stroke:#000000;stroke-width:0.264583;stroke-opacity:1"
       d="M 52.546241,29.576858 Z"
       id="path2919"
       inkscape:path-effect="#path-effect2921"
       inkscape:original-d="m 52.546241,29.576858 c 0.732846,0.732845 2.197741,2.19774 0,0 z" />
    <path
       style="fill:#000000;stroke:#000000;stroke-width:0.264583;stroke-opacity:1"
       d="M 52.569046,29.59396 Z"
       id="path2923"
       inkscape:path-effect="#path-effect2925"
       inkscape:original-d="m 52.569046,29.59396 c 0.845915,0.845916 2.536949,2.536952 0,0 z" />
    <path
       style="fill:#ffffff;fill-opacity:0.501961;stroke:#ffffff;stroke-width:0.212944;stroke-opacity:1"
       d="m 52.436767,29.512992 2.100281,2.066077 z"
       id="path2927"
       inkscape:path-effect="#path-effect2929"
       inkscape:original-d="m 52.436767,29.512992 c 0.699537,0.688145 2.100281,2.066077 2.100281,2.066077 0,0 0.237692,-0.357789 -2.100281,-2.066077 z" />
    <path
       style="fill:#007749;fill-opacity:1;stroke:#007749;stroke-width:0.0322498;stroke-opacity:1"
       d="m 53.575119,30.470092 c -0.566703,-0.56691 -1.045052,-1.030745 -1.062998,-1.030745 -0.01794,0 -0.489686,0.4573 -1.048309,1.016224 -0.919495,0.919994 -1.019746,1.010846 -1.058664,0.959432 -0.02365,-0.03124 -0.10837,-0.186039 -0.188285,-0.344005 l -0.145296,-0.287214 1.018717,-1.01909 1.018718,-1.01909 V 24.93647 21.127337 l 0.120935,-0.01999 c 0.202068,-0.0334 0.632013,0.0025 0.613,2.28e-4 l 0.169566,0.02037 -7.93e-4,3.856683 -7.94e-4,3.856683 0.987009,0.987393 0.987007,0.987393 -0.130143,0.254934 c -0.07158,0.140214 -0.156964,0.29428 -0.189746,0.342371 l -0.0596,0.08744 -1.030366,-1.030743 z"
       id="path7118"
       sodipodi:nodetypes="csssscccccsscccccssccc" />
    <path
       style="fill:#e03c31;fill-opacity:1;stroke:none;stroke-width:0.0327924;stroke-opacity:1"
       d="m 49.91934,30.336562 c -0.05528,-0.142036 -0.223858,-0.786558 -0.280525,-1.072566 -0.22725,-1.14695 -0.269146,-2.897424 -0.101227,-4.229429 0.249517,-1.979283 1.081165,-3.641945 2.173594,-4.138751 0.09507,-0.04323 0.123101,0.126485 0.145911,0.126305 0.03294,-2.51e-4 0.01867,0.856175 0.01867,3.810089 v 3.719193 l -0.960585,0.937862 c -0.95868,0.936002 -0.960656,0.937682 -0.995839,0.847294 z"
       id="path8431"
       sodipodi:nodetypes="sssssscsss" />
    <path
       style="fill:#001489;fill-opacity:1;stroke:#007749;stroke-width:0.121889;stroke-opacity:1"
       d="m 204.92246,111.8602 -3.37897,-3.38058 V 94.310825 c 0,-7.792838 0.0288,-14.858304 0.064,-14.858304 0.10989,0 -0.21085,-0.378617 0.16439,-0.123635 0.19643,0.133475 2.02924,1.392012 2.49279,1.848676 3.58382,3.530584 6.05243,11.277282 6.05243,20.477878 0,4.87245 -0.50539,8.94337 -1.5359,12.37174 -0.17128,0.56983 -0.3493,1.076 -0.39559,1.12483 -0.0463,0.0488 -1.60471,-1.43249 -3.46314,-3.29181 z"
       id="path9573"
       transform="scale(0.26458333)"
       sodipodi:nodetypes="ccssssssssc" />
    <path
       id="path10137"
       style="fill:#000000;fill-opacity:1;stroke:#000000;stroke-width:0.00954139;stroke-opacity:1"
       d="m 52.464647,29.865757 -0.09959,0.133106 c -0.06724,0.05446 -0.386537,0.355297 -0.793482,0.696602 -0.65457,0.548992 -0.697301,0.795412 -0.744763,0.808868 -0.01839,0.0052 0.02644,0.06632 0.155763,0.192644 0.407684,0.398236 0.955776,0.50925 1.530684,0.559366 0.08254,0.0072 0.224801,0.02851 0.318333,0.02001 0.414738,-0.03753 0.548384,-0.109104 0.877227,-0.335395 0.131784,-0.09069 0.475312,-0.401877 0.58574,-0.527634 -0.125423,-0.0228 -0.08912,0.06495 -0.0207,0.0079 L 53.475877,30.717085 C 53.208459,30.4849 52.622748,29.914718 52.573386,29.881472 Z"
       sodipodi:nodetypes="ccscsscsccccc" />
  </g>
</svg>
